# AST/ASF file generated using VICON BodyLanguage
# -----------------------------------------------
:version 1.10
:name VICON
:units
  mass 1.0
  length 0.45
  angle deg
:documentation
   .ast/.asf automatically generated from VICON data using
   VICON BodyBuilder and BodyLanguage model FoxedUp or BRILLIANT.MOD
:root
   order TX TY TZ RX RY RZ
   axis XYZ
   position 0 0 0  
   orientation 0 0 0 
:bonedata
  begin
     id 1 
     name lhipjoint
     direction 0.627457 -0.725269 0.283342 
     length 2.53237 
     axis 0 0 0  XYZ
  end
  begin
     id 2 
     name lfemur
     direction 0.34202 -0.939693 0  
     length 7.32496  
     axis 0 0 20  XYZ
    dof rx ry rz
    limits (-160.0 20.0)
           (-70.0 70.0)
           (-60.0 70.0)
  end
  begin
     id 3 
     name ltibia
     direction 0.34202 -0.939693 0   
     length 7.69674   
     axis 0 0 20   XYZ
    dof rx
    limits (-10.0 170.0)
  end
  begin
     id 4 
     name lfoot
     direction 0.127289 -0.349722 0.928166   
     length 1.8612   
     axis -90 7.62852e-016 20   XYZ
    dof rx rz
    limits (-45.0 90.0)
           (-70.0 20.0)
  end
  begin
     id 5 
     name ltoes
     direction 1.53561e-011 -4.21864e-011 1   
     length 0.925608   
     axis -90 7.62852e-016 20   XYZ
    dof rx
    limits (-90.0 20.0)
  end
  begin
     id 6 
     name rhipjoint
     direction -0.609094 -0.738725 0.288599   
     length 2.48624  
     axis 0 0 0  XYZ 
  end
  begin
     id 7 
     name rfemur
     direction -0.34202 -0.939693 0   
     length 7.44259   
     axis 0 0 -20   XYZ
    dof rx ry rz
    limits (-160.0 20.0)
           (-70.0 70.0)
           (-70.0 60.0)
  end
  begin
     id 8 
     name rtibia
     direction -0.34202 -0.939693 0   
     length 7.7781   
     axis 0 0 -20   XYZ
    dof rx
    limits (-10.0 170.0)
 end
 begin
     id 9 
     name rfoot
     direction -0.107015 -0.294021 0.949789   
     length 2.14741  
     axis -90 -7.62852e-016 -20   XYZ
    dof rx rz
    limits (-45.0 90.0)
           (-20.0 70.0)
  end
  begin
     id 10 
     name rtoes
     direction -1.53497e-011 -4.21924e-011 1   
     length 1.0706   
     axis -90 -7.62852e-016 -20   XYZ
    dof rx
    limits (-90.0 20.0)
  end
  begin
     id 11 
     name lowerback
     direction -0.0142066 0.998112 -0.0597545   
     length 1.86627   
     axis 0 0 0   XYZ
    dof rx ry rz
    limits (-20.0 45.0)
           (-30.0 30.0)
           (-30.0 30.0)
  end
  begin
     id 12 
     name upperback
     direction 0.00547294 0.999744 0.0219437   
     length 1.86272   
     axis 0 0 0   XYZ
    dof rx ry rz
    limits (-20.0 45.0)
           (-30.0 30.0)
           (-30.0 30.0)
  end
  begin
     id 13 
     name thorax
     direction 0.0116162 0.998704 0.0495538   
     length 1.8703   
     axis 0 0 0   XYZ
    dof rx ry rz
    limits (-20.0 45.0)
           (-30.0 30.0)
           (-30.0 30.0)
  end
  begin
     id 14 
     name lowerneck
     direction -0.0106574 0.998739 0.0490586   
     length 1.8074   
     axis 0 0 0   XYZ
    dof rx ry rz
    limits (-20.0 45.0)
           (-30.0 30.0)
           (-30.0 30.0)
  end
  begin
     id 15 
     name upperneck
     direction 0.030527 0.976587 -0.212944   
     length 1.80681   
     axis 0 0 0   XYZ
    dof rx ry rz
    limits (-20.0 45.0)
           (-30.0 30.0)
           (-30.0 30.0)
  end
  begin
     id 16
     name head
     direction 0.00869225 0.997035 -0.0764531  
     length 1.8313  
     axis 0 0 0   XYZ
    dof rx ry rz
    limits (-20.0 45.0)
           (-30.0 30.0)
           (-30.0 30.0)
  end
  begin
     id 17 
     name lclavicle
     direction 0.915958 0.399447 0.0382386  
     length 3.78965  
     axis 0 0 0   XYZ
    dof ry rz
    limits (-20.0 10.0)
           (0.0 20.0)
  end
  begin
     id 18 
     name lhumerus
     direction 1 -4.48967e-011 3.19303e-027   
     length 4.78095   
     axis -180 -30 -90   XYZ
    dof rx ry rz
    limits (-60.0 90.0)
           (-90.0 90.0)
           (-90.0 90.0)
  end
  begin
     id 19
     name lradius
     direction 1 -4.48967e-011 -3.77974e-027   
     length 3.58615   
     axis -180 -30 -90   XYZ
    dof rx
    limits (-10.0 170.0)
  end
  begin
     id 20
     name lwrist
     direction 1 -4.48927e-011 1.2807e-027   
     length 1.79307   
     axis 1.91374e-015 90 90   XYZ
    dof ry
    limits (-180.0 0.0)
 end
  begin
     id 21 
     name lhand
     direction 1 -4.49036e-011 2.5614e-027   
     length 0.659812   
     axis -1.63439e-015 90 90   XYZ
    dof rx rz
    limits (-90.0 90.0)
           (-45.0 45.0)
  end
  begin
     id 22 
     name lfingers
     direction 1 -4.49052e-011 5.1228e-027   
     length 0.531957   
     axis -3.26879e-015 90 90   XYZ
    dof rx
    limits (0.0 90.0)
  end
  begin
     id 23
     name lthumb
     direction 0.707107 -6.35012e-011 0.707107   
     length 0.763787   
     axis -90 45 2.85299e-015   XYZ
    dof rx rz
    limits (-45.0 45.0)
           (-45.0 45.0)
  end
  begin
     id 24 
     name rclavicle
     direction -0.895351 0.435135 0.0948887   
     length 3.70497  
     axis 0 0 0   XYZ 
    dof ry rz
    limits (-10.0 20.0)
           (-20.0 0.0)
  end
  begin
     id 25 
     name rhumerus
     direction -1 -4.48971e-011 2.38946e-027  
     length 4.48913   
     axis -180 30 90   XYZ
    dof rx ry rz
    limits (-90.0 60.0)
           (-90.0 90.0)
           (-90.0 90.0)
  end
  begin
     id 26 
     name rradius
     direction -1 -4.4895e-011 4.38668e-027   
     length 3.7051   
     axis -180 30 90   XYZ
    dof rx
    limits (-10.0 170.0)
  end
  begin
     id 27 
     name rwrist
     direction -1 -4.49007e-011 1.2807e-027   
     length 1.85255   
     axis 1.91374e-015 -90 -90   XYZ
    dof ry
    limits (-180.0 0.0)
  end
  begin
     id 28
     name rhand
     direction -1 -4.48851e-011 2.5614e-027   
     length 0.449136   
     axis -1.63439e-015 -90 -90   XYZ
    dof rx rz
    limits (-90.0 90.0)
           (-45.0 45.0)
  end
  begin
     id 29
     name rfingers
     direction -1 -4.49128e-011 5.1228e-027   
     length 0.362105   
     axis -3.26879e-015 -90 -90   XYZ
    dof rx
    limits (0.0 90.0)
  end
  begin
     id 30
     name rthumb
     direction -0.707107 -6.34851e-011 0.707107   
     length 0.519912   
     axis -90 -45 -2.85299e-015   XYZ
    dof rx rz
    limits (-45.0 45.0)
           (-45.0 45.0)
  end
:hierarchy
  begin
    root lhipjoint rhipjoint lowerback
    lhipjoint lfemur
    lfemur ltibia
    ltibia lfoot
    lfoot ltoes
    rhipjoint rfemur
    rfemur rtibia
    rtibia rfoot
    rfoot rtoes
    lowerback upperback
    upperback thorax
    thorax lowerneck lclavicle rclavicle
    lowerneck upperneck
    upperneck head
    lclavicle lhumerus
    lhumerus lradius
    lradius lwrist
    lwrist lhand lthumb
    lhand lfingers
    rclavicle rhumerus
    rhumerus rradius
    rradius rwrist
    rwrist rhand rthumb
    rhand rfingers
  end

#!OML:ASF I:\Actors\actors\Patient Classification 2\Patient 1\Session 1\actor1.ASF
:FULLY-SPECIFIED
:DEGREES
53
root -0.852653 18.6645 5.8253 0.919281 -1.66446 -4.66317
lowerback 7.6371 0.937647 2.40325
upperback -1.90895 1.5549 1.01866
thorax -6.24969 0.694881 -0.486693
lowerneck -12.1849 -2.03 -1.15287
upperneck 26.3803 -3.37502 2.74206
head 10.5218 -1.34304 0.750212
rclavicle -1.04362e-014 -5.36719e-015
rhumerus -48.8049 -4.34244 -84.9587
rradius 43.4504
rwrist 18.2135
rhand -10.4941 -26.8252
rfingers 7.12502
rthumb 15.5078 -56.2233
lclavicle -1.04362e-014 -5.36719e-015
lhumerus -44.3566 2.24685 88.555
lradius 40.1339
lwrist -11.4757
lhand -4.89045 -30.1452
lfingers 7.12502
lthumb 20.8987 -1.25088
rfemur 7.78021 -1.74554 18.8012
rtibia 9.54166e-015
rfoot -15.2313 -9.79176
rtoes -5.04108
lfemur -5.97008 -4.34445 -8.91371
ltibia 24.5283
lfoot -21.4567 10.5671
ltoes -56.2255
54
root -0.852362 18.6639 5.82299 0.936113 -1.66889 -4.64583
lowerback 7.63939 0.934652 2.37363
upperback -1.92155 1.54774 1.00881
thorax -6.26492 0.692022 -0.479613
lowerneck -12.1254 -2.03358 -1.09089
upperneck 26.3659 -3.37846 2.68353
head 10.5026 -1.3462 0.718879
rclavicle 6.79284e-015 2.08724e-014
rhumerus -48.8526 -4.34071 -84.982
rradius 43.4969
rwrist 18.2208
rhand -10.5229 -26.6945
rfingers 7.12502
rthumb 15.4801 -56.0947
lclavicle 6.79284e-015 2.08724e-014
lhumerus -44.3828 2.26403 88.541
lradius 40.1117
lwrist -11.5072
lhand -4.95935 -30.1893
lfingers 7.12502
lthumb 20.8325 -1.28774
rfemur 7.75519 -1.7409 18.7755
rtibia -6.36111e-015
rfoot -15.2835 -9.73179
rtoes -4.3165
lfemur -5.99889 -4.30033 -8.92866
ltibia 24.5367
lfoot -21.4107 10.542
ltoes -56.2741
55
root -0.85239 18.6639 5.82128 0.943361 -1.68385 -4.64936
lowerback 7.63177 0.932738 2.35462
upperback -1.91854 1.54322 1.01317
thorax -6.25807 0.690714 -0.463644
lowerneck -12.0981 -2.01923 -1.00823
upperneck 26.3467 -3.34624 2.57186
head 10.4857 -1.33686 0.669293
rclavicle 1.07437e-014 -5.56597e-015
rhumerus -48.8617 -4.31566 -85.0101
rradius 43.5154
rwrist 18.2267
rhand -11.8884 -26.7258
rfingers 7.12502
rthumb 14.1645 -56.2229
lclavicle 1.07437e-014 -5.56597e-015
lhumerus -44.3932 2.23676 88.5533
lradius 40.1001
lwrist -11.5584
lhand -5.03237 -30.2805
lfingers 7.12502
lthumb 20.7623 -1.37127
rfemur 7.73949 -1.72582 18.7782
rtibia -3.18055e-015
rfoot -15.3027 -9.71853
rtoes -4.24564
lfemur -6.01493 -4.21882 -8.91763
ltibia 24.545
lfoot -21.388 10.4916
ltoes -56.3203
56
root -0.851068 18.6643 5.82062 0.912515 -1.70382 -4.63087
lowerback 7.65069 0.934933 2.3462
upperback -1.89373 1.54435 0.997412
thorax -6.24238 0.691587 -0.475673
lowerneck -12.1086 -2.00366 -0.953338
upperneck 26.3163 -3.32048 2.51571
head 10.4739 -1.32642 0.643034
rclavicle 1.85786e-014 7.95139e-015
rhumerus -48.8469 -4.28994 -85.0637
rradius 43.5528
rwrist 18.1775
rhand -11.9784 -26.6341
rfingers 7.12502
rthumb 14.0778 -56.1373
lclavicle 1.85786e-014 7.95139e-015
lhumerus -44.3733 2.18941 88.5673
lradius 40.0804
lwrist -11.5943
lhand -5.08525 -30.2974
lfingers 7.12502
lthumb 20.7115 -1.38264
rfemur 7.76448 -1.70505 18.7539
rtibia -3.81667e-014
rfoot -15.2753 -9.74459
rtoes -4.63932
lfemur -5.97688 -4.18846 -8.94454
ltibia 24.5512
lfoot -21.4103 10.4784
ltoes -56.3343
57
root -0.85049 18.6645 5.81914 0.894023 -1.70996 -4.6102
lowerback 7.67949 0.938315 2.33241
upperback -1.8772 1.54698 0.980182
thorax -6.24115 0.693144 -0.486684
lowerneck -12.1408 -2.00513 -0.960111
upperneck 26.3056 -3.32303 2.52488
head 10.4766 -1.32696 0.646794
rclavicle 3.11533e-015 1.0138e-014
rhumerus -48.8656 -4.2556 -85.1219
rradius 43.634
rwrist 18.0693
rhand -10.8504 -26.3194
rfingers 7.12502
rthumb 15.1646 -55.7437
lclavicle 3.11533e-015 1.0138e-014
lhumerus -44.3768 2.10897 88.6043
lradius 40.1254
lwrist -11.5361
lhand -5.02798 -30.191
lfingers 7.12502
lthumb 20.7665 -1.28217
rfemur 7.77068 -1.69865 18.7329
rtibia -9.54166e-015
rfoot -15.2296 -9.79625
rtoes -5.10509
lfemur -5.96013 -4.1571 -8.97336
ltibia 24.5584
lfoot -21.4188 10.4784
ltoes -56.4099
